<svg xmlns="http://www.w3.org/2000/svg" width="16" height="16" viewBox="0 0 16 16" fill="none">
<path fill-rule="evenodd" clip-rule="evenodd" d="M3.46202 1.7554C3.62538 1.14573 4.25205 0.78392 4.86173 0.947282L14.245 3.46152C14.8547 3.62489 15.2165 4.25156 15.0531 4.86123L12.5389 14.2445C12.3755 14.8542 11.7489 15.216 11.1392 15.0526L1.7559 12.5384C1.14622 12.375 0.784415 11.7484 0.947777 11.1387L3.46202 1.7554ZM10.7946 10.8192C10.5904 11.5813 9.80702 12.0335 9.04493 11.8293C8.28283 11.6251 7.83057 10.8418 8.03477 10.0797C8.23898 9.31761 9.02231 8.86535 9.78441 9.06955C10.5465 9.27376 10.9988 10.0571 10.7946 10.8192ZM6.2165 6.93036C6.97859 7.13457 7.76193 6.6823 7.96613 5.92021C8.17034 5.15812 7.71808 4.37478 6.95598 4.17057C6.19389 3.96637 5.41055 4.41863 5.20635 5.18073C5.00214 5.94282 5.4544 6.72616 6.2165 6.93036Z" fill="white"/>
</svg>